<?xml version="1.0" encoding="UTF-8"?>
<svg role="img" aria-label="Stand-up, Flat with black style" xmlns="http://www.w3.org/2000/svg" viewBox="0 0 480 360" fill="none">
<title id="s5c-title">Stand-up</title>
<g id="s5c-scene" transform="translate(240 178) scale(0.94) translate(-242 -170)">
<path d="M82 308H402" fill="none" stroke="#15202f" stroke-width="1.25" stroke-linecap="round" stroke-linejoin="round" id="s5c-ground"/>
<g id="s5c-board"><path d="M244 120V299M244 300L237 308M244 300L251 308" fill="none" stroke="#15202f" stroke-width="2.4" stroke-linecap="round" stroke-linejoin="round"/><path d="M237 121L244 129L251 121" fill="none" stroke="#15202f" stroke-width="2" stroke-linecap="round" stroke-linejoin="round"/><rect x="210" y="42" width="68" height="78" rx="3" fill="#ffffff" stroke="#15202f" stroke-width="1.3"/><path d="M232.7 50V112M255.3 50V112" fill="none" stroke="#d9dde2" stroke-width="1" stroke-linecap="round" stroke-linejoin="round"/><path d="M215.3 52H227.3" fill="none" stroke="#15202f" stroke-width="1.6" stroke-linecap="round" stroke-linejoin="round"/><path d="M238 52H250" fill="none" stroke="#15202f" stroke-width="1.6" stroke-linecap="round" stroke-linejoin="round"/><path d="M260.7 52H272.7" fill="none" stroke="#15202f" stroke-width="1.6" stroke-linecap="round" stroke-linejoin="round"/><g transform="translate(221.33333333333334 70) rotate(-6)"><rect x="-8" y="-8" width="16" height="16" rx="1.2" fill="#f9db74"/><path d="M-4.5 -2.5H4M-4.5 1.5H1.5" fill="none" stroke="#15202f" stroke-width="1" stroke-linecap="round" stroke-linejoin="round"/></g><g transform="translate(221.33333333333334 90) rotate(4)"><rect x="-8" y="-8" width="16" height="16" rx="1.2" fill="#e56355"/><path d="M-4.5 -2.5H4M-4.5 1.5H1.5" fill="none" stroke="#15202f" stroke-width="1" stroke-linecap="round" stroke-linejoin="round"/></g><g transform="translate(220.83333333333334 108) rotate(-3)"><rect x="-8" y="-8" width="16" height="16" rx="1.2" fill="#f9db74"/><path d="M-4.5 -2.5H4M-4.5 1.5H1.5" fill="none" stroke="#15202f" stroke-width="1" stroke-linecap="round" stroke-linejoin="round"/></g><g transform="translate(244 71) rotate(5)"><rect x="-8" y="-8" width="16" height="16" rx="1.2" fill="#a5d1e1"/><path d="M-3.2 -3L-6 0L-3.2 3M3.2 -3L6 0L3.2 3M1 -4L-1 4" fill="none" stroke="#15202f" stroke-width="1.2" stroke-linecap="round" stroke-linejoin="round"/></g><g transform="translate(244 92) rotate(-5)"><rect x="-8" y="-8" width="16" height="16" rx="1.2" fill="#f9db74"/><path d="M-4.5 -2.5H4M-4.5 1.5H1.5" fill="none" stroke="#15202f" stroke-width="1" stroke-linecap="round" stroke-linejoin="round"/></g><g transform="translate(266.6666666666667 70) rotate(3)"><rect x="-8" y="-8" width="16" height="16" rx="1.2" fill="#a6cf6e"/><path d="M-4 0.5L-1.2 3.4L4.2 -2.6" fill="none" stroke="#15202f" stroke-width="1.4" stroke-linecap="round" stroke-linejoin="round"/></g><g transform="translate(266.6666666666667 91) rotate(-4)"><rect x="-8" y="-8" width="16" height="16" rx="1.2" fill="#a6cf6e"/><path d="M-4 0.5L-1.2 3.4L4.2 -2.6" fill="none" stroke="#15202f" stroke-width="1.4" stroke-linecap="round" stroke-linejoin="round"/></g></g>
<g id="s5c-talker"><path d="M181.8 288.1C181.8 289.4 182.2 294.8 182.3 296.1L190.7 295.6C190.7 294.2 190.3 288.9 190.2 287.6Z" fill="#fadfb9"/>
<path d="M153.3 192.9C155.2 199.7 162.3 225.9 164.5 233.8C166.6 241.7 165.7 238 166.2 240.2C166.8 242.4 165.9 238.7 167.6 246.9C169.4 255.1 175.1 282.4 176.7 289.5L195.3 286.1C194.3 279 190.1 251.4 188.9 243.1C187.6 234.7 188.2 238.2 187.8 235.8C187.4 233.4 188 236.9 186.5 228.8C184.9 220.6 180 194 178.7 187.1Z" fill="#5b9bb6" id="s5c-a-leg-f"/>
<path d="M170 234C173 237 174 241 173.6 245" fill="none" stroke="#ffffff" stroke-width="0.9" stroke-linecap="round" stroke-linejoin="round" id="s5c-a-crease"/>
<g id="s5c-a-shoe-f" transform="translate(187 296.8) scale(0.86 0.86)"><path d="M-10 -7C-14 -3 -15 3 -14.5 8L-13 13L-1.5 13C-0.5 11.2 2.5 10.8 4.5 11.2L7 13L34 13C40.5 13 46 10.5 46 6C46 1.8 41.5 0 36 -1C27 -3 18 -6 10 -9.5L-2 -10.5C-6 -10.5 -8.5 -9.5 -10 -7Z" fill="#f9db74"/><path d="M-14.6 9.6H-2.2L-1.5 13H-13Z" fill="#d9ab3c"/><path d="M6.4 9.6H34.6C39.6 9.6 43.6 8.2 45.8 5.8C46.2 10.4 40.6 13 34 13H7Z" fill="#d9ab3c"/><path d="M13 -5.5C17 -4 20.5 -2 22.5 0.5" fill="none" stroke="#d9ab3c" stroke-width="0.9" stroke-linecap="round" stroke-linejoin="round"/><path d="M-9.6 -6.6C-11.6 -3 -12.2 1.6 -11.8 5.6" fill="none" stroke="#d9ab3c" stroke-width="0.9" stroke-linecap="round" stroke-linejoin="round"/></g>
<path d="M193.5 276.2L174.9 279.5L175.8 290.7L196.5 286.9Z" fill="#97c8df" id="s5c-a-cuff-f"/>
<path d="M176.8 143.2C179.9 147.6 192.3 165.3 195.4 169.7L206.6 162.3C203.7 157.7 192.1 139.4 189.2 134.8Z" fill="#c94d42" id="s5c-a-sleeve-g"/>
<path d="M205 170.3C206.9 167.3 214.7 155.6 216.6 152.7L209.4 147.3C207.1 150 198.1 160.7 195.8 163.4Z" fill="#fadfb9" id="s5c-a-fore-g"/>
<path d="M203.7 157.9L192.5 165.4L196 172.5L208.9 163.9Z" fill="#e56355" id="s5c-a-cuff-g"/>
<g id="s5c-a-palm" transform="translate(212.5 150.5) rotate(-40)"><path d="M-1 -4.2C2 -4.6 4.4 -5.2 6 -6.4C7.4 -8.6 8.6 -11.4 10.2 -12.8C11.4 -13.8 13 -13.2 12.8 -11.6C12.6 -10 11.6 -7.8 11.4 -5.8C14.8 -6.6 19 -7.6 22.6 -7.8C24.4 -7.9 25.2 -6.8 24.6 -5.8C24.2 -5 23 -4.8 21.4 -4.6C23.4 -4.4 25.2 -4 25.4 -2.8C25.6 -1.6 24.6 -1 23 -1C24.4 -0.6 25 0.6 24.4 1.4C23.8 2.2 22.4 2.2 21 2C21.8 2.6 21.8 3.8 20.8 4.2C19.2 4.8 15 4.2 11 3.6C7 3 3 3.6 -1 4.4Z" fill="#fadfb9"/><path d="M21.4 -4.6L16.4 -4.2M23 -1L17.2 -0.8M21 2L16.8 1.8M11.4 -5.8C10.4 -4.6 9.2 -4 7.6 -3.8" fill="none" stroke="#15202f" stroke-width="0.75" stroke-linecap="round" stroke-linejoin="round"/></g>
<path d="M129.8 287.6C129.7 288.9 129.3 294.2 129.3 295.6L137.7 296.1C137.8 294.8 138.2 289.4 138.2 288.1Z" fill="#fadfb9"/>
<path d="M140.7 185.8C139.4 193.7 134.6 224.1 133.2 233.3C131.7 242.4 132.3 238.6 131.9 240.9C131.6 243.2 132.2 239.6 130.9 247.1C129.7 254.6 125.5 279.4 124.4 285.9L143.6 289.7C145.1 283.4 150.8 258.9 152.6 251.4C154.3 244 153.5 247.5 154.1 245.1C154.6 242.8 153.8 246.5 155.6 237.3C157.5 228.2 163.7 198.1 165.3 190.2Z" fill="#65aacb" id="s5c-a-leg-b"/>
<path d="M144.6 206.4C147 237 145 249 134.2 269.2" fill="none" stroke="#ffffff" stroke-width="0.9" stroke-linecap="round" stroke-linejoin="round" id="s5c-a-seam"/>
<g id="s5c-a-shoe-b" transform="translate(133 296.8) scale(-0.86 0.86)"><path d="M-10 -7C-14 -3 -15 3 -14.5 8L-13 13L-1.5 13C-0.5 11.2 2.5 10.8 4.5 11.2L7 13L34 13C40.5 13 46 10.5 46 6C46 1.8 41.5 0 36 -1C27 -3 18 -6 10 -9.5L-2 -10.5C-6 -10.5 -8.5 -9.5 -10 -7Z" fill="#f9db74"/><path d="M-14.6 9.6H-2.2L-1.5 13H-13Z" fill="#d9ab3c"/><path d="M6.4 9.6H34.6C39.6 9.6 43.6 8.2 45.8 5.8C46.2 10.4 40.6 13 34 13H7Z" fill="#d9ab3c"/><path d="M13 -5.5C17 -4 20.5 -2 22.5 0.5" fill="none" stroke="#d9ab3c" stroke-width="0.9" stroke-linecap="round" stroke-linejoin="round"/><path d="M-9.6 -6.6C-11.6 -3 -12.2 1.6 -11.8 5.6" fill="none" stroke="#d9ab3c" stroke-width="0.9" stroke-linecap="round" stroke-linejoin="round"/></g>
<path d="M145.4 280.8L126.2 276.9L123.3 286.6L144.4 290.8Z" fill="#97c8df" id="s5c-a-cuff-b"/>
<path d="M153 134C147 139 145 150 146 161C147 172 140 184 136 196.4C149 202.6 169 202.4 182.4 195.4C181.4 186 181 177 183 169C186 160 188 150 187 141C186 135 182 130 177 128L165 127.6C160 128.6 156 131 153 134Z" fill="#e56355" id="s5c-a-torso"/>
<path d="M137.4 192.6C150 198.2 169 198 181.8 191.6L182.4 195.4C169 202.4 149 202.6 136 196.4Z" fill="#c94d42" id="s5c-a-hem"/>
<path d="M166 184C170 185 174 184.6 177 183.4M178 150C180.4 154 181.6 158 182 162" fill="none" stroke="#c94d42" stroke-width="1" stroke-linecap="round" stroke-linejoin="round" id="s5c-a-folds"/>
<path d="M165 130C168 135.4 176 135 178 128.6L177 120H166Z" fill="#fadfb9" id="s5c-a-neck"/>
<path d="M164.4 129.6C168 135.8 176 135.4 179 128.4" fill="none" stroke="#c94d42" stroke-width="2.4" stroke-linecap="round" stroke-linejoin="round" id="s5c-a-collar"/>
<g id="s5c-a-sleeve-m"><circle cx="153" cy="140" r="7.8" fill="#e56355"/><path d="M146.1 136.4C143.6 141.7 133.3 162.6 130.8 167.8L143.2 174.2C146 169.1 157.1 148.7 159.9 143.6Z" fill="#e56355"/></g>
<path d="M159 136C160.6 142 159.4 148 156.6 153" fill="none" stroke="#c94d42" stroke-width="1" stroke-linecap="round" stroke-linejoin="round" id="s5c-a-armhole"/>
<path d="M138.6 176.6C142 174.7 155.6 167 159 165L155 157C151.4 158.5 137 164.8 133.4 166.4Z" fill="#fadfb9" id="s5c-a-fore-m"/>
<path d="M145.8 169.3L133.3 162.8L128.6 169.8L142.8 177.1Z" fill="#c94d42" id="s5c-a-cuff-m"/>
<g id="s5c-a-cup" transform="translate(166 153)"><g id="s5c-a-mug"><path d="M-8 -5C-14.5 -5.5 -14.5 5.5 -8 5" fill="none" stroke="#5b9bb6" stroke-width="3.2" stroke-linecap="round" stroke-linejoin="round"/><path d="M-8.5 -10H8.5V7C8.5 9.2 6.7 11 4.5 11H-4.5C-6.7 11 -8.5 9.2 -8.5 7Z" fill="#65aacb"/><ellipse cx="0" cy="-10" rx="8.5" ry="2.2" fill="#5b9bb6"/><ellipse cx="0" cy="-9.6" rx="6.6" ry="1.4" fill="#6b4a3a"/></g><path d="M-15.6 9C-16.6 4 -16.4 -1.4 -13.6 -5L-9 -6.4V7.6C-10.6 9.4 -13 10.2 -15.6 9Z" fill="#fadfb9"/><rect x="-10.4" y="-5.8" width="11" height="3.7" rx="1.85" fill="#fadfb9"/><rect x="-10.4" y="-1.7" width="10.4" height="3.7" rx="1.85" fill="#fadfb9"/><rect x="-10.4" y="2.4" width="9" height="3.5" rx="1.75" fill="#fadfb9"/><rect x="-2" y="-5" width="3.8" height="9" rx="1.9" fill="#fadfb9" transform="translate(-9.8 -6) rotate(14) translate(-0 -0)"/></g>
<g id="s5c-a-head" transform="translate(175 104) rotate(-2) scale(1.06)"><path d="M-14 -6C-15 -16 -5 -21 6 -19.6C15 -18.4 20 -11 20 -4L21.4 0.4C22.4 2.4 22 3.8 20.4 4.4C20 9 18.6 14 14.6 17.6C10.6 20.8 4 21.4 -1.6 18.6C-7 15.8 -12 11 -13.6 5C-14.4 1.6 -14.4 -2 -14 -6Z" fill="#fadfb9"/><circle cx="-6" cy="-24" r="8.5" fill="#15202f"/><path d="M18.4 -11C17 -19 9 -24.6 -1 -24C-10 -23.4 -17 -17 -17.4 -8C-17.8 0 -16 7 -12 11C-11.4 5 -11 0 -10 -4C-6 -9 0 -11.6 8 -12C12 -12.2 15.6 -11.8 18.4 -11Z" fill="#15202f"/><ellipse cx="-7.6" cy="2.6" rx="3.8" ry="4.8" fill="#fadfb9"/><path d="M-8.2 0.2C-6.8 0.4 -6 2.2 -6.8 4.4" fill="none" stroke="#efc9a0" stroke-width="0.9" stroke-linecap="round" stroke-linejoin="round"/><circle cx="-7.4" cy="8.6" r="1.8" fill="#f9db74"/><ellipse cx="3.4" cy="5.6" rx="3.6" ry="2.1" fill="#f3ad8f"/><path d="M20.8 4.4C21.8 4 22.4 3.2 22.6 2.4" fill="none" stroke="#e29771" stroke-width="1.1" stroke-linecap="round" stroke-linejoin="round"/><circle cx="5" cy="-2" r="1.8" fill="#15202f"/><circle cx="16.4" cy="-2.4" r="1.6" fill="#15202f"/><path d="M0.6 -8.6C2.4 -11 6 -11.6 8.4 -10.2M13.8 -10.6C15.4 -12 17.8 -12 19.2 -10.8" fill="none" stroke="#15202f" stroke-width="1.4" stroke-linecap="round" stroke-linejoin="round"/><path d="M9.4 10C12.4 9.2 16 9.2 18.2 10.2C17.8 14 15.4 16 13.2 15.6C11 15.2 9.6 13 9.4 10Z" fill="#15202f"/><path d="M11 14.4C12.4 13.2 14.8 13 16.2 14C15.4 15.2 14.2 15.8 13 15.6C12.2 15.5 11.5 15.1 11 14.4Z" fill="#e56355"/></g></g>
<g id="s5c-nodder"><path d="M305.1 186C303.2 192.9 296.1 219.5 293.9 227.8C291.6 236 292.3 232.9 291.8 235.3C291.3 237.6 291.8 235 291 241.9C290.1 248.8 287.4 270.9 286.7 276.8L306.5 279.9C307.6 274.1 312 251.9 313.3 245.4C314.5 238.9 313.7 242.5 314.2 240.7C314.7 238.9 313.6 242.6 316.3 234.8C319.1 227 328.5 200.8 330.9 194Z" fill="#26313f" id="s5c-b-leg-f"/>
<path d="M311 233C308 237 307 241 307.4 245" fill="none" stroke="#ffffff" stroke-width="0.9" stroke-linecap="round" stroke-linejoin="round" id="s5c-b-crease"/>
<path d="M308.2 269.4L288.4 266.3L285.4 279L307.1 282.5Z" fill="#4b5662" id="s5c-b-cuff-f"/>
<g id="s5c-b-shoe-f"><path d="M308.7 276.5C312.5 280 315 285.9 316.2 291.8L265.5 303.9C263.1 303.9 262.2 302.1 262.8 300.1C263.7 297 267.7 295.7 272.9 294.9C280.2 293.8 284.2 290.3 285.4 284.3C287.7 280.6 291.4 277.5 296.5 275.4C301.3 273.5 305.5 274.1 308.7 276.5Z" fill="#65aacb"/><path d="M316.3 291.5L264 303.6C262 303.6 261.1 304.9 261.5 306.2C261.8 307.4 262.9 308 264.6 308L317.3 295.9C318.3 295.5 318.6 294.6 318.2 293.4C317.7 292 317 291.3 316.3 291.5Z" fill="#ffffff"/><path d="M316.3 291.5L264 303.6C262 303.6 261.1 304.9 261.5 306.2C261.8 307.4 262.9 308 264.6 308L317.3 295.9C318.3 295.5 318.6 294.6 318.2 293.4C317.7 292 317 291.3 316.3 291.5Z" fill="none" stroke="#15202f" stroke-width="1" stroke-linecap="round" stroke-linejoin="round"/><path d="M276.6 294.4C272.5 295.3 269.9 297.7 269.2 301.4" fill="none" stroke="#ffffff" stroke-width="0.9" stroke-linecap="round" stroke-linejoin="round"/><path d="M287.9 282.5L286.8 286.9M285.3 286.6L285.2 290.7M284.2 290.3L283.6 293.4" fill="none" stroke="#ffffff" stroke-width="1" stroke-linecap="round" stroke-linejoin="round"/><path d="M306.3 286.1C302.2 291 296.8 294.9 290.9 297.5" fill="none" stroke="#ffffff" stroke-width="0.9" stroke-linecap="round" stroke-linejoin="round"/></g>
<path d="M302.6 132.6C301.8 137.8 298.3 158.5 297.4 163.7L310.6 166.3C311.7 161.1 316.2 140.6 317.4 135.4Z" fill="#8fbb57" id="s5c-b-sleeve-f"/>
<path d="M306.1 159.9C304.6 159.6 298.6 158.6 297.2 158.4L294.8 167.6C296.3 168.1 302 170 303.5 170.5Z" fill="#fadfb9" id="s5c-b-fore-f"/>
<path d="M319.1 189.7C320.4 197.7 325.5 228.3 327 237.7C328.6 247 327.9 243.4 328.4 245.8C328.8 248.2 328.2 245.1 329.8 251.9C331.4 258.7 336.6 280.7 337.9 286.4L358.1 282.5C357.1 276.6 353.5 254.1 352.4 247.4C351.4 240.7 351.9 244.3 351.6 242.2C351.4 240.1 351.8 244 351 234.7C350.2 225.3 347.6 194.3 346.9 186.3Z" fill="#15202f" id="s5c-b-leg-w"/>
<path d="M340.1 204.2C336 238 337 250 348.2 267.6" fill="none" stroke="#ffffff" stroke-width="0.9" stroke-linecap="round" stroke-linejoin="round" id="s5c-b-seam"/>
<path d="M356 271.9L335.9 275.9L337.4 289.1L359.5 284.7Z" fill="#4b5662" id="s5c-b-cuff-w"/>
<g id="s5c-b-shoe-w"><path d="M336 286.8C333.6 291.4 333.3 297.9 334.2 303.9L388.5 303.9C390.9 303.9 391.8 302.1 391.2 300.1C390.3 297 386.3 295.7 381.1 294.9C373.8 293.8 367.3 290.5 360.9 286.1C357.2 283.5 352.6 281.9 347.1 281.7C341.9 281.5 338.2 283.5 336 286.8Z" fill="#5b9bb6"/><path d="M334 303.6L390 303.6C392 303.6 392.9 304.9 392.5 306.2C392.2 307.4 391.1 308 389.4 308L334.6 308C333.5 308 332.9 307.3 332.9 306C332.9 304.5 333.3 303.6 334 303.6Z" fill="#ffffff"/><path d="M334 303.6L390 303.6C392 303.6 392.9 304.9 392.5 306.2C392.2 307.4 391.1 308 389.4 308L334.6 308C333.5 308 332.9 307.3 332.9 306C332.9 304.5 333.3 303.6 334 303.6Z" fill="none" stroke="#15202f" stroke-width="1" stroke-linecap="round" stroke-linejoin="round"/><path d="M377.4 294.4C381.5 295.3 384.1 297.7 384.8 301.4" fill="none" stroke="#ffffff" stroke-width="0.9" stroke-linecap="round" stroke-linejoin="round"/><path d="M357.6 285.4L360.3 289M362.4 287.9L364.9 291.4M367.1 290.5L369.3 293.5" fill="none" stroke="#ffffff" stroke-width="1" stroke-linecap="round" stroke-linejoin="round"/><path d="M341.6 295.1C347.1 298.2 353.5 300.1 360 300.5" fill="none" stroke="#ffffff" stroke-width="0.9" stroke-linecap="round" stroke-linejoin="round"/></g>
<path d="M308 131C303 139 302 150 303 160C304 172 301 184 300 197C307 201 312 202.6 316.6 202.4H321.6C330 203.4 341 201 350.4 196C348.4 183 347 171 348 159C349 148 348 139 344 132C339 126 332 122 324 122C317 122 312 125 308 131Z" fill="#a6cf6e" id="s5c-b-torso"/>
<path d="M309.4 123.6H320L319.6 204.6C316.2 205.4 312.8 205.4 309.6 204.6Z" fill="#ffffff" id="s5c-b-tee"/>
<path d="M309.6 128C310 150 309.8 176 309.8 199C309.6 201.4 308.4 202.6 306.2 203M319.8 128C319.4 150 319.4 176 319.4 199C319.6 201.6 321 202.8 323.6 203.2" fill="none" stroke="#8fbb57" stroke-width="2" stroke-linecap="round" stroke-linejoin="round" id="s5c-b-front"/>
<path d="M336 188C340 190 344 190.6 347 190" fill="none" stroke="#8fbb57" stroke-width="1" stroke-linecap="round" stroke-linejoin="round"/>
<path d="M310 121C312 127.6 319.4 127.6 321.4 121L320.4 115H311Z" fill="#fadfb9" id="s5c-b-neck"/>
<path d="M307.8 121L313.8 130L309.8 132.4L304.8 123.4Z" fill="#c6e1a0" id="s5c-b-collar-l"/>
<path d="M324.4 121L318.4 130L322.4 132.4L327.4 123.4Z" fill="#c6e1a0" id="s5c-b-collar-r"/>
<g id="s5c-b-sleeve-n"><circle cx="343" cy="136" r="8" fill="#a6cf6e"/><path d="M335.3 138.3C337.2 143.8 344.5 165.6 346.3 171L359.7 167C358.2 161.4 352.2 139.2 350.7 133.7Z" fill="#a6cf6e"/></g>
<path d="M337 131C335 137 336 144 339 150" fill="none" stroke="#8fbb57" stroke-width="1" stroke-linecap="round" stroke-linejoin="round" id="s5c-b-armhole"/>
<path d="M356.6 164.2C350.6 162.2 326.6 154.5 320.6 152.5L317.4 161.5C323.3 163.7 346.9 172.8 352.8 175Z" fill="#fadfb9" id="s5c-b-fore-n"/>
<path d="M358.1 161.7L344.7 165.8L346.1 174L361.5 169.3Z" fill="#8fbb57" id="s5c-b-cuff-n"/>
<g id="s5c-b-cup" transform="translate(300 152)"><g id="s5c-b-mug" transform="scale(-1 1)"><path d="M-8 -5C-14.5 -5.5 -14.5 5.5 -8 5" fill="none" stroke="#c94d42" stroke-width="3.2" stroke-linecap="round" stroke-linejoin="round"/><path d="M-8.5 -10H8.5V7C8.5 9.2 6.7 11 4.5 11H-4.5C-6.7 11 -8.5 9.2 -8.5 7Z" fill="#e56355"/><ellipse cx="0" cy="-10" rx="8.5" ry="2.2" fill="#c94d42"/><ellipse cx="0" cy="-9.6" rx="6.6" ry="1.4" fill="#6b4a3a"/></g><path d="M-15 15C-16 12 -13.6 10.2 -10 10.6L3.4 11.6C5.6 11.8 6.6 12.6 6.4 13.6C6.2 14.6 5 15 3.4 15L-4 15.4C-8 15.6 -12.6 16.6 -15 15Z" fill="#fadfb9"/><path d="M-4 15.2C-1.6 14.6 1 14.2 3.6 14.2" fill="none" stroke="#15202f" stroke-width="0.7" stroke-linecap="round" stroke-linejoin="round"/><path d="M-11.8 11.4C-12.6 8 -12.2 3.4 -10.8 0.6C-10 -0.8 -8.2 -0.6 -8 1L-7.8 10.6Z" fill="#fadfb9"/><path d="M-8 1.2C-7.6 4.6 -7.6 8 -8 10.8" fill="none" stroke="#15202f" stroke-width="0.75" stroke-linecap="round" stroke-linejoin="round"/><path d="M11.4 -2.4C14.6 -3.6 18.6 -3 20.2 -0.4C21.6 2.2 21.4 6 19.6 8.6C18.4 10.2 16 10.8 13.6 10.4C11.8 10.2 10.8 9.2 10.8 7.8C9.6 7.4 9.2 6.2 9.8 5C8.8 4.4 8.6 3 9.4 2C8.6 1.2 8.8 -0.4 9.8 -1C10 -1.6 10.6 -2.1 11.4 -2.4Z" fill="#fadfb9"/><path d="M9.8 -1C8.8 -0.4 8.6 1.2 9.4 2C8.6 3 8.8 4.4 9.8 5C9.2 6.2 9.6 7.4 10.8 7.8C10.8 9.2 11.8 10.2 13.4 10.4L13 -1.6C11.8 -1.8 10.6 -1.6 9.8 -1Z" fill="#efc9a0"/><path d="M9.4 2H11.8M9.8 5H12.2" fill="none" stroke="#15202f" stroke-width="0.7" stroke-linecap="round" stroke-linejoin="round"/><path d="M17.6 -2C15.4 -4.4 12.4 -6.2 9.4 -6.6C8 -6.8 7.4 -5.4 8.4 -4.6C10.6 -3 13.4 -1.6 16 -0.6Z" fill="#fadfb9"/><path d="M8.6 -4.4C10.8 -2.9 13.4 -1.6 16 -0.6" fill="none" stroke="#15202f" stroke-width="0.75" stroke-linecap="round" stroke-linejoin="round"/></g>
<g id="s5c-b-head" transform="translate(315 96) rotate(-17) scale(-1.06 1.06)"><path d="M-14 -6C-15 -16 -5 -21 6 -19.6C15 -18.4 20 -11 20 -4L21.6 0.6C22.6 2.6 22.2 4 20.6 4.6C20.2 9.2 18.8 14.4 14.8 18C10.8 21.2 4 21.8 -1.6 19C-7 16.2 -12 11.2 -13.6 5.2C-14.4 1.8 -14.4 -2 -14 -6Z" fill="#fadfb9"/><path d="M-13.6 -2C-14 4 -12 10 -8.6 13.6C-6 16.4 -2 18.8 2.4 20.2C7 21.8 12.6 21 15.6 18C18.4 15.2 19.6 11.4 20 8.4C17.6 9.6 15 9.8 12.6 9.2C9.6 8.6 6.6 9 4 10.6C1 12.4 -2.6 11.6 -4.6 8.6L-8.4 -2Z" fill="#15202f"/><path d="M7.4 13.4C10 12.4 13.6 12.4 16 13.4C15 15.6 12.6 16.6 10.8 16.4C9.2 16.2 8 15 7.4 13.4Z" fill="#f0a58c"/><ellipse cx="-7.4" cy="2.4" rx="3.8" ry="4.8" fill="#fadfb9"/><path d="M-8 0C-6.6 0.2 -5.8 2 -6.6 4.2" fill="none" stroke="#efc9a0" stroke-width="0.9" stroke-linecap="round" stroke-linejoin="round"/><path d="M-17 -6C-18 -20 -6 -29 6 -28C16 -27 22 -20 21.6 -10L-16.4 -6.4Z" fill="#65aacb"/><path d="M-17.4 -8.6C-6 -12 8 -13.4 22 -11.8L21.8 -6.4C8 -8 -5 -6.8 -17 -3.4Z" fill="#5b9bb6"/><path d="M-6 -24.6L-4.6 -14M2 -26L2.6 -14.4M10 -25.4L9.8 -14" fill="none" stroke="#4a8bab" stroke-width="1" stroke-linecap="round" stroke-linejoin="round"/><circle cx="4.6" cy="-0.4" r="6" stroke="#15202f" stroke-width="1.5"/><circle cx="17.4" cy="-0.8" r="4.6" stroke="#15202f" stroke-width="1.5"/><path d="M10.6 -0.8C11.4 -1.7 12 -1.7 12.8 -1.1M-1.4 -1L-7 0.6" fill="none" stroke="#15202f" stroke-width="1.5" stroke-linecap="round" stroke-linejoin="round"/><path d="M2 0.4C3.4 -1.4 5.6 -1.4 7 0.4M15.4 0C16.4 -1.2 17.8 -1.2 18.8 0" fill="none" stroke="#15202f" stroke-width="1.3" stroke-linecap="round" stroke-linejoin="round"/><path d="M1 -6C3 -6.8 5.6 -6.8 7.6 -6M14.4 -6.2C15.8 -6.8 17.4 -6.8 18.8 -6" fill="none" stroke="#15202f" stroke-width="1.3" stroke-linecap="round" stroke-linejoin="round"/><path d="M20.6 4.6C21.6 4.2 22.2 3.4 22.4 2.6" fill="none" stroke="#e29771" stroke-width="1.1" stroke-linecap="round" stroke-linejoin="round"/></g>
<path d="M344 78C347.4 81.4 348.4 86 347 90.6M350.6 74C355 79 356 86 353.6 92.6" fill="none" stroke="#15202f" stroke-width="1.3" stroke-linecap="round" stroke-linejoin="round" id="s5c-b-nod"/></g>
<g id="s5c-bubble" transform="translate(124 50) rotate(-5)"><path d="M-24 -15H24C27 -15 29 -13 29 -10V9C29 12 27 14 24 14H6L14 24L-4 14H-24C-27 14 -29 12 -29 9V-10C-29 -13 -27 -15 -24 -15Z" fill="#a6cf6e"/><path d="M-18 -5H16M-18 3H6" fill="none" stroke="#15202f" stroke-width="1.8" stroke-linecap="round" stroke-linejoin="round"/></g>
<g id="s5c-decor"><path id="s5c-star1" d="M373.3 58.6L374.6 63.5L379.4 65L375.2 67.7L375.3 72.7L371.4 69.5L366.6 71.2L368.4 66.5L365.4 62.5L370.4 62.8Z" fill="#f9db74" stroke="#f9db74" stroke-width="2" stroke-linejoin="round"/><path id="s5c-star2" d="M104.8 166.1L107.2 169.4L111.2 169L108.9 172.3L110.5 176L106.6 174.8L103.6 177.5L103.5 173.4L100 171.4L103.9 170.1Z" fill="#65aacb" stroke="#65aacb" stroke-width="2" stroke-linejoin="round"/><g id="s5c-sparkles"><path d="M302 33.6V36.8M302 43.2V46.4M295.6 40H298.8M305.2 40H308.4" fill="none" stroke="#f9db74" stroke-width="1.2" stroke-linecap="round" stroke-linejoin="round"/><path d="M386 178V181M386 187V190M380 184H383M389 184H392" fill="none" stroke="#f9db74" stroke-width="1.2" stroke-linecap="round" stroke-linejoin="round"/></g></g>
</g></svg>
